<?xml version="1.0" standalone="no"?>
<!DOCTYPE svg PUBLIC "-//W3C//DTD SVG 20010904//EN"
 "http://www.w3.org/TR/2001/REC-SVG-20010904/DTD/svg10.dtd">
<svg version="1.0" xmlns="http://www.w3.org/2000/svg"
 width="260.000000pt" height="260.000000pt" viewBox="0 0 260.000000 260.000000"
 preserveAspectRatio="xMidYMid meet">
<metadata>
Created by potrace 1.14, written by Peter Selinger 2001-2017
</metadata>
<g transform="translate(0.000000,260.000000) scale(0.100000,-0.100000)"
fill="#000000" stroke="none">
<path d="M792 2379 c-78 -24 -148 -133 -179 -279 -25 -122 -25 -474 1 -615 36
-197 92 -354 173 -487 28 -45 36 -70 40 -120 7 -108 -24 -136 -117 -102 -45
16 -50 16 -73 1 -38 -25 -62 -105 -61 -209 l1 -88 -289 0 -288 0 0 -240 0
-240 1300 0 1300 0 0 240 0 240 -321 0 -321 0 6 26 c4 15 18 106 32 203 54
381 20 690 -86 792 -21 20 -51 39 -68 42 -102 20 -215 -95 -258 -265 -26 -99
0 -204 57 -233 40 -21 63 -19 98 11 l31 26 0 -71 c0 -113 -29 -161 -97 -161
-37 0 -92 55 -128 127 -64 128 -47 412 41 675 44 132 87 175 216 212 139 40
184 160 105 277 -83 123 -221 123 -394 -1 -163 -116 -239 -282 -250 -540 -7
-173 12 -605 31 -691 16 -72 78 -258 120 -356 14 -34 26 -65 26 -68 0 -3 -90
-5 -199 -5 l-200 0 9 32 c5 17 14 86 20 152 15 181 -9 427 -61 613 -23 83 -70
202 -93 235 -9 12 -16 41 -16 64 0 39 3 44 42 66 52 28 72 63 98 163 44 171
36 371 -19 471 -47 88 -141 130 -229 103z"/>
</g>
</svg>
